HIERARCHY
ROOT root
{
	OFFSET 0.000000 0.000000 0.000000
	CHANNELS 6 Xposition Yposition Zposition Zrotation Yrotation Xrotation
	JOINT lhip
	{
		OFFSET 0.058581 -0.082280 -0.017664
		CHANNELS 3 Zrotation Yrotation Xrotation
		JOINT lknee
		{
			OFFSET 0.043451 -0.386469 0.008037
			CHANNELS 3 Zrotation Yrotation Xrotation
			JOINT lankle
			{
				OFFSET -0.014790 -0.426874 -0.037428
				CHANNELS 3 Zrotation Yrotation Xrotation
				JOINT ltoe
				{
					OFFSET 0.041054 -0.060286 0.122042
					CHANNELS 3 Zrotation Yrotation Xrotation
					End Site
					{
						OFFSET 0.000000 0.000000 0.000000
					}
				}
			}
		}
	}
	JOINT rhip
	{
		OFFSET -0.060310 -0.090513 -0.013543
		CHANNELS 3 Zrotation Yrotation Xrotation
		JOINT rknee
		{
			OFFSET -0.043257 -0.383688 -0.004843
			CHANNELS 3 Zrotation Yrotation Xrotation
			JOINT rankle
			{
				OFFSET 0.019056 -0.420046 -0.034562
				CHANNELS 3 Zrotation Yrotation Xrotation
				JOINT rtoe
				{
					OFFSET -0.034840 -0.062106 0.130323
					CHANNELS 3 Zrotation Yrotation Xrotation
					End Site
					{
						OFFSET 0.000000 0.000000 0.000000
					}
				}
			}
		}
	}
	JOINT lowerback
	{
		OFFSET 0.004439 0.124404 -0.038385
		CHANNELS 3 Zrotation Yrotation Xrotation
		JOINT upperback
		{
			OFFSET 0.004488 0.137956 0.026820
			CHANNELS 3 Zrotation Yrotation Xrotation
			JOINT chest
			{
				OFFSET -0.002265 0.056032 0.002855
				CHANNELS 3 Zrotation Yrotation Xrotation
				JOINT lowerneck
				{
					OFFSET -0.013390 0.211636 -0.033468
					CHANNELS 3 Zrotation Yrotation Xrotation
					JOINT upperneck
					{
						OFFSET 0.010113 0.088937 0.050410
						CHANNELS 3 Zrotation Yrotation Xrotation
						End Site
						{
							OFFSET 0.000000 0.000000 0.000000
						}
					}
				}
				JOINT lclavicle
				{
					OFFSET 0.071702 0.114000 -0.018898
					CHANNELS 3 Zrotation Yrotation Xrotation
					JOINT lshoulder
					{
						OFFSET 0.122921 0.045205 -0.019046
						CHANNELS 3 Zrotation Yrotation Xrotation
						JOINT lelbow
						{
							OFFSET 0.255332 -0.015649 -0.022946
							CHANNELS 3 Zrotation Yrotation Xrotation
							JOINT lwrist
							{
								OFFSET 0.265709 0.012698 -0.007375
								CHANNELS 3 Zrotation Yrotation Xrotation
								End Site
								{
									OFFSET 0.000000 0.000000 0.000000
								}
							}
						}
					}
				}
				JOINT rclavicle
				{
					OFFSET -0.082954 0.112472 -0.023707
					CHANNELS 3 Zrotation Yrotation Xrotation
					JOINT rshoulder
					{
						OFFSET -0.113228 0.046853 -0.008472
						CHANNELS 3 Zrotation Yrotation Xrotation
						JOINT relbow
						{
							OFFSET -0.260127 -0.014369 -0.031269
							CHANNELS 3 Zrotation Yrotation Xrotation
							JOINT rwrist
							{
								OFFSET -0.269108 0.006794 -0.006027
								CHANNELS 3 Zrotation Yrotation Xrotation
								End Site
								{
									OFFSET 0.000000 0.000000 0.000000
								}
							}
						}
					}
				}
			}
		}
	}
}
MOTION
Frames: 7
Frame Time: 0.033333
0.160104 -1.769403 0.919986 161.466388 1.980539 92.395556 19.442753 12.972912 -2.674911 -9.903933 9.300467 26.042906 -1.271095 11.120097 -26.068249 0.000000 -0.000000 0.000000 -16.586041 -11.077229 -29.489112 6.060251 -9.752823 48.526967 -2.494959 -1.448344 -17.982520 0.000000 -0.000000 0.000000 -8.649700 -1.712117 8.960527 1.872152 -3.700184 16.123686 -0.987135 -2.995343 -4.845331 5.954027 -7.265917 -7.343570 13.626423 -11.508897 -16.657738 -22.138692 -3.664720 4.499323 -44.478082 -4.390828 27.705467 -168.261238 -57.782730 -177.410635 25.423133 -12.344164 -13.846215 19.846030 3.426628 1.851021 38.037264 -4.060830 17.468939 159.764050 57.038706 160.534207 -28.462807 13.136888 -44.568223 
0.176546 -1.752419 0.920987 159.572553 2.016467 92.013835 19.492030 13.135542 0.765366 -8.257904 9.201159 24.151090 -2.521646 10.621632 -25.926054 0.000000 -0.000000 0.000000 -18.385071 -11.524551 -29.608214 4.692124 -8.022733 44.413743 -1.166491 -1.419469 -14.857816 0.000000 -0.000000 0.000000 -7.017980 -4.406225 8.737414 1.191728 -5.862727 12.613692 -1.485524 -3.448953 -3.772869 2.408565 -5.487972 -5.078985 11.914204 -5.446212 -12.108310 -22.046690 -9.010647 1.728965 -43.128598 -14.524234 26.377658 -170.788598 -58.584789 -170.999553 26.562417 -12.766274 -14.416105 16.395560 4.617637 -0.455033 33.092843 1.730381 12.666843 168.326605 55.685835 168.462282 -27.216885 13.965367 -44.623814 
0.195496 -1.739200 0.919158 158.848399 2.385329 91.756615 21.130981 13.895223 2.408517 -8.023666 8.137271 24.815805 -3.884353 10.007875 -25.642405 0.000000 -0.000000 0.000000 -19.538155 -11.662519 -29.553787 3.676331 -6.229439 39.834111 0.176762 -2.485363 -11.277620 0.000000 -0.000000 0.000000 -6.153136 -6.540491 9.485782 1.567189 -8.867541 9.324004 -0.798314 -4.182395 -4.606564 -1.060162 -3.186025 -2.594073 10.097278 2.522582 -6.270764 -22.642728 -17.939422 2.114384 -36.992336 -26.232232 21.432855 178.367371 -65.416658 -156.255991 28.468326 -12.448032 -16.269382 13.839787 8.810097 -2.036369 28.940491 9.778056 5.269774 -178.143457 61.371340 -177.613218 -25.400468 13.017541 -45.873755 
0.222058 -1.726111 0.909135 159.358438 2.827136 91.801474 24.603639 14.726840 1.697986 -8.832572 8.320299 29.645541 -4.775851 8.491683 -26.216611 0.000000 -0.000000 0.000000 -21.077305 -11.639359 -29.704231 2.628614 -5.074439 36.068492 2.966103 -1.631452 -1.847031 0.000000 -0.000000 0.000000 -6.819303 -9.721947 11.738048 4.058301 -13.469295 4.321526 1.300838 -5.487489 -4.866546 -4.211884 4.900597 -1.684150 6.849698 10.644656 -2.437095 -17.806853 -27.125623 0.867643 -32.764820 -40.679036 12.882206 105.828494 -75.696229 -90.514392 25.267978 -10.331605 -19.736918 11.639319 17.132067 -3.224294 23.481711 25.300221 -4.831708 -122.879264 74.181094 -127.993570 -17.809147 10.788161 -41.691946 
0.239186 -1.719693 0.898730 160.194976 3.219385 91.941227 27.553777 16.053577 -0.590921 -9.955753 8.016757 36.053444 -4.645994 8.086007 -25.388835 0.000000 -0.000000 0.000000 -22.060314 -11.071793 -29.241405 3.471230 -4.044741 35.308205 4.949390 -0.429790 -2.284767 0.000000 -0.000000 0.000000 -7.290516 -11.052851 12.727684 5.649416 -15.960213 2.368203 2.597128 -6.007745 -4.531547 -5.752492 10.586361 -2.101541 5.631341 14.478080 -0.888887 -13.992083 -32.692395 -0.590010 -25.227468 -49.423924 2.981915 52.627711 -62.937733 -41.426069 16.350617 -10.222410 -26.846413 10.635191 23.049171 -4.161203 19.303412 34.604404 -12.684923 -65.383858 67.926827 -73.859585 -8.982358 9.516031 -36.066594 
0.263192 -1.709924 0.882176 160.328537 3.502188 91.176573 31.431300 17.657774 -2.430082 -11.600732 6.992831 44.537950 -4.989076 7.243631 -25.597587 0.000000 -0.000000 0.000000 -22.780270 -10.135085 -28.660616 5.996273 -0.289190 39.715374 4.155542 1.753316 -10.465518 0.000000 -0.000000 0.000000 -7.528862 -11.742114 15.599044 6.878587 -18.350851 0.803441 3.701827 -6.358408 -5.358189 -7.055944 18.009081 -3.536759 4.347104 20.413834 0.053445 -9.688070 -38.869691 -3.402004 -7.959559 -58.676676 -14.890343 29.067333 -40.086170 -31.252897 11.456353 -5.873020 -24.186590 11.071393 30.669665 -3.917394 8.632306 44.022657 -24.526956 -35.956983 49.467154 -53.481440 -4.533459 5.986675 -29.109420 
0.284038 -1.698644 0.865467 158.833744 3.280168 91.029139 33.062953 18.133673 -3.390225 -11.802809 6.079218 50.596826 -5.177622 6.676467 -24.299306 0.000000 -0.000000 0.000000 -22.906259 -10.437171 -30.769025 7.395890 -0.288050 45.525466 2.199188 3.058241 -16.933482 0.000000 -0.000000 0.000000 -7.018336 -11.655161 17.475631 6.538187 -18.284795 1.024050 4.486174 -6.092803 -5.820646 -8.936856 25.327050 -4.396665 -0.354315 24.244573 -3.908455 -4.500060 -41.434388 -8.210197 -3.958361 -61.945723 -20.231507 29.577838 -31.252085 -32.938849 10.258220 -5.461031 -21.665565 8.507982 34.145785 -5.047359 6.674862 45.308728 -26.808112 -35.302079 41.557579 -58.102991 -4.965774 5.776699 -31.123695 
